<svg xmlns="http://www.w3.org/2000/svg" viewBox="0 0 800 210" role="img" aria-labelledby="title desc">
  <title id="title">Purple team security skills</title>
  <desc id="desc">Compact animated skill cards for Purple Team, Threat Detection, AI Automation, and Secure Engineering.</desc>
  <defs><linearGradient id="bg" x1="0" x2="1"><stop stop-color="#070A12"/><stop offset=".5" stop-color="#17112B"/><stop offset="1" stop-color="#0B2E2B"/></linearGradient></defs>
  <rect width="800" height="210" rx="18" fill="url(#bg)" stroke="#334155"/>
  <g font-family="Arial, Helvetica, sans-serif" text-anchor="middle">
    <g transform="translate(10 15)"><rect width="185" height="180" rx="14" fill="#111827" stroke="#7C3AED"/><circle cx="92.5" cy="65" r="28" fill="none" stroke="#A78BFA" stroke-width="3"><animate attributeName="r" values="24;32;24" dur="2.6s" repeatCount="indefinite"/></circle><path d="M77 65l11 11 22-25" fill="none" stroke="#00D9A6" stroke-width="5" stroke-linecap="round" stroke-linejoin="round"/><text x="92.5" y="125" font-size="13" fill="#F8FAFC">PURPLE TEAM</text><text x="92.5" y="148" font-size="10" fill="#A78BFA">validate | improve</text></g>
    <g transform="translate(205 15)"><rect width="185" height="180" rx="14" fill="#111827" stroke="#E11D48"/><g transform="translate(28 5) scale(.70)"><path d="M92.5 35l30 12v27c0 22-15 36-30 44-15-8-30-22-30-44V47z" fill="none" stroke="#F97316" stroke-width="3"/><path d="M78 74h29M92.5 59v30" stroke="#00D9A6" stroke-width="4" stroke-linecap="round"><animateTransform attributeName="transform" type="rotate" from="0 92.5 74" to="360 92.5 74" dur="5s" repeatCount="indefinite"/></path></g><text x="92.5" y="125" font-size="12" fill="#F8FAFC">THREAT DETECTION</text><text x="92.5" y="148" font-size="10" fill="#F97316">observe | correlate</text></g>
    <g transform="translate(400 15)"><rect width="185" height="180" rx="14" fill="#111827" stroke="#00D9A6"/><circle cx="92.5" cy="65" r="29" fill="none" stroke="#00D9A6" stroke-width="3"/><circle cx="92.5" cy="65" r="8" fill="#F97316"><animate attributeName="r" values="6;12;6" dur="1.7s" repeatCount="indefinite"/></circle><path d="M92.5 29v25M92.5 76v25M57 65h25M103 65h25" stroke="#A78BFA" stroke-width="3"/><text x="92.5" y="125" font-size="13" fill="#F8FAFC">AI AUTOMATION</text><text x="92.5" y="148" font-size="10" fill="#00D9A6">analyze | automate</text></g>
    <g transform="translate(595 15)"><rect width="195" height="180" rx="14" fill="#111827" stroke="#2563EB"/><g transform="translate(30 5) scale(.68)"><path d="M97.5 35l30 12v27c0 22-15 36-30 44-15-8-30-22-30-44V47z" fill="none" stroke="#60A5FA" stroke-width="3"/><path d="M80 74l12 12 23-26" fill="none" stroke="#00D9A6" stroke-width="5" stroke-linecap="round" stroke-linejoin="round"/></g><text x="97.5" y="125" font-size="11" fill="#F8FAFC">SECURE ENGINEERING</text><text x="97.5" y="148" font-size="10" fill="#60A5FA">design | harden</text></g>
  </g>
</svg>
